<svg width="432" height="57" viewBox="0 0 432 57" fill="none" xmlns="http://www.w3.org/2000/svg">
<g clip-path="url(#clip0_76_371)">
<path d="M74.6456 49.7908H59.1847C49.3913 49.7908 41.4205 42.257 41.4205 33.0004V23.4817C41.4205 14.2251 49.3851 6.69128 59.1847 6.69128H74.6456V17.2087H59.1847C55.1899 17.2087 51.9379 20.0237 51.9379 23.4817V33.0004C51.9379 36.4584 55.1899 39.2734 59.1847 39.2734H74.6456V49.7908Z" fill="#2E2725"/>
<path d="M75.2884 50.4275H59.1908C49.0417 50.4275 40.79 42.6065 40.79 33.0004V23.4754C40.79 13.8631 49.0417 6.04211 59.1908 6.04211H75.2884V17.8453H59.1908C55.5519 17.8453 52.587 20.367 52.587 23.4754V33.0004C52.587 36.1088 55.5519 38.6305 59.1908 38.6305H75.2884V50.4275ZM59.1908 7.32792C49.7532 7.32792 42.0696 14.5746 42.0696 23.4754V33.0004C42.0696 41.9012 49.747 49.1417 59.1908 49.1417H74.0088V39.9163H59.1908C54.8403 39.9163 51.3012 36.8141 51.3012 33.0004V23.4754C51.3012 19.6617 54.8403 16.5595 59.1908 16.5595H74.0088V7.32792H59.1908Z" fill="#2E2725"/>
<path d="M99.8311 6.83472C87.8344 6.83472 78.0723 16.5969 78.0723 28.5936C78.0723 40.5903 87.8344 50.3462 99.8311 50.3462C111.828 50.3462 121.584 40.5841 121.584 28.5936C121.584 16.6031 111.822 6.83472 99.8311 6.83472ZM99.8311 38.6616C94.2759 38.6616 89.7631 34.1425 89.7631 28.5936C89.7631 23.0446 94.2822 18.5256 99.8311 18.5256C105.38 18.5256 109.899 23.0446 109.899 28.5936C109.899 34.1425 105.38 38.6616 99.8311 38.6616Z" fill="#2E2725"/>
<path d="M123.238 18.563H135.746V50.1402H147.431V18.563H159.939V6.87842H130.179C126.346 6.87842 123.238 9.98683 123.238 13.8193V18.563Z" fill="#2E2725"/>
<path d="M162.524 23.5939V34.8104C162.524 43.6426 170.75 50.2152 180.868 50.2152H194.101V39.4418H180.868C177.198 39.4418 174.208 37.0887 174.208 34.1987V33.974H194.101V23.2007H174.208V22.976C174.208 20.0861 177.198 17.7329 180.868 17.7329H194.101V6.96582H180.868C170.75 6.96582 162.524 14.7618 162.524 23.5877V23.5939Z" fill="#2E2725"/>
<path d="M263.722 6.50403C251.725 6.50403 241.969 16.2662 241.969 28.2567C241.969 40.2471 251.731 50.0155 263.722 50.0155C275.712 50.0155 285.481 40.2534 285.481 28.2567C285.481 16.2599 275.718 6.50403 263.722 6.50403ZM263.722 38.3309C258.167 38.3309 253.654 33.8118 253.654 28.2629C253.654 22.7139 258.173 18.1949 263.722 18.1949C269.271 18.1949 273.79 22.7139 273.79 28.2629C273.79 33.8118 269.271 38.3309 263.722 38.3309Z" fill="#2E2725"/>
<path d="M286.436 18.2322H298.944V49.8968H310.629V18.2322H323.137V6.54761H293.376C289.544 6.54761 286.436 9.65602 286.436 13.4885V18.2322Z" fill="#2E2725"/>
<path d="M325.029 23.2569V34.4734C325.029 43.3055 333.255 49.8781 343.373 49.8781H356.606V39.1048H343.373C339.703 39.1048 336.713 36.7516 336.713 33.8617V33.637H356.606V22.8637H336.713V22.639C336.713 19.749 339.703 17.3959 343.373 17.3959H356.606V6.63501H343.373C333.255 6.63501 325.029 14.431 325.029 23.2569Z" fill="#2E2725"/>
<path d="M219.467 6.46021H202.24V49.8968H213.925V18.1448H219.467C223.125 18.1448 226.109 21.1222 226.109 24.7861V49.8968H237.793V24.7861C237.793 14.6806 229.573 6.46021 219.467 6.46021Z" fill="#2E2725"/>
<path d="M33.0815 1.26086V17.5582L15.4235 28.8808L33.0815 40.2845V56.432L3.88868 37.8877C1.66036 36.4708 0.312134 34.0178 0.312134 31.3775V26.2405C0.312134 23.6002 1.6666 21.141 3.90116 19.7241L33.0815 1.26086Z" fill="#2E2725"/>
<path d="M33.3936 57L3.72011 38.1561C1.39192 36.6768 0 34.1426 0 31.3837V26.2467C0 23.4816 1.39816 20.9475 3.73259 19.4682L33.3936 0.692871V17.7267L16.0039 28.8808L33.3936 40.1098V56.9938V57ZM32.7694 1.82888L4.0634 19.9925C1.90999 21.3594 0.624179 23.6939 0.624179 26.2467V31.3837C0.624179 33.9304 1.90375 36.2648 4.05716 37.6318L32.7694 55.8703V40.4593L14.8492 28.887L32.7694 17.3897V1.82888Z" fill="white"/>
<path d="M398.532 56.432V40.1347L416.121 28.8121L398.532 17.4084V1.26086L427.712 19.7303C429.947 21.141 431.301 23.6002 431.301 26.2467V31.4524C431.301 34.0927 429.947 36.5519 427.712 37.9688L398.532 56.4383V56.432Z" fill="#2E2725"/>
<path d="M398.22 57V39.9662L415.547 28.8121L398.22 17.5831V0.692871L427.881 19.4619C430.221 20.9412 431.613 23.4754 431.613 26.2405V31.4462C431.613 34.2113 430.215 36.7454 427.881 38.2247L398.22 56.9938V57ZM398.844 40.3033V55.864L427.544 37.7004C429.697 36.3397 430.989 33.999 430.989 31.4462V26.2405C430.989 23.6876 429.703 21.3532 427.544 19.9862L398.844 1.82263V17.2336L416.695 28.8059L398.844 40.3033Z" fill="white"/>
<path d="M388.57 10.4924L391.597 0H385.755C383.364 0 380.893 1.9412 380.237 4.3318L378.396 10.4924H388.57Z" fill="#35CC71"/>
<path d="M377.89 14.7368L367.591 50.6708L369.67 55.9888C370.007 56.8502 371.986 56.8502 372.791 55.9888L377.772 50.6708L388.071 14.7368H377.897H377.89Z" fill="#35CC71"/>
</g>
<defs>
<clipPath id="clip0_76_371">
<rect width="431.613" height="57" fill="white"/>
</clipPath>
</defs>
</svg>
